<svg width="110" height="154" fill="none" xmlns="http://www.w3.org/2000/svg"><path fill-rule="evenodd" clip-rule="evenodd" d="M15.57 75.284l12.657-3.797-.03-5.593-12.717-7.389.09 16.779zm20.153-64.989l14.213 8.127 30.902-8.371c6.33-1.526 13.417-1.192 19.032 2.88 0 0-17.607-15.193-32.872-11.008l-31.275 8.372zm.261 116.707l-7.48-4.434 7.819-1.906-.01-1.865c-.014-2.61-.401-5.218-.788-7.826l-.002-.372c-.004-.746-.381-1.49-.385-2.236-15.638 4.187-17.871 4.945-33.509 9.131l26.929 15.142c5.988 4.069 7.088.707 7.426-5.634z" fill="#FFE267" stroke="#A5E5F4" stroke-miterlimit="10" stroke-linecap="round" stroke-linejoin="round"/><path fill-rule="evenodd" clip-rule="evenodd" d="M80.837 10.05l-31.275 8.373.048 8.949.275 50.709 12.659-3.425-.23-42.506 18.243-4.946c11.913-3.42 15.291.663 15.352 11.849l.265 48.844c.065 11.931-9.225 17.948-14.807 19.842l-18.617 4.949.002.372.087 16.033 20.852-5.333c14.892-4.182 24.882-18.405 24.807-32.201l-.327-60.403c.294-14.543-11.698-25.664-27.334-21.105z" fill="#FFE267" stroke="#A5E5F4" stroke-miterlimit="10" stroke-linecap="round" stroke-linejoin="round"/><path fill-rule="evenodd" clip-rule="evenodd" d="M96.172 88.27l-.266-49.217c-.059-10.813-3.435-14.524-14.234-11.855l.296 54.437c-.315 10.815-4.39 15.684-15.56 18.728-1.862.383-3.349 1.137-5.211 1.52 1.136 3.349 1.53 7.076 1.554 11.55l18.616-4.948c8.187-3.027 14.12-9.025 14.816-18.351-.006-1.118-.009-1.491-.01-1.864zm-59.855 32.019l-7.818 2.279L36.353 127l-.03-5.593-.006-1.118z" fill="#FFE267" stroke="#A5E5F4" stroke-miterlimit="10" stroke-linecap="round" stroke-linejoin="round"/><path fill-rule="evenodd" clip-rule="evenodd" d="M62.865 133.194l-.012-2.237-.004-.746-.089-16.406c-.494-22.369-15.082-30.866-15.082-30.866l-19.45-11.08-12.658 3.424 19.45 11.08c14.582 7.753 15.066 28.257 15.08 30.867l.002.373.09 16.405.005 1.119c-.36 2.239-1.793 13.06-11.465 17.214l11.909-4.166c1.86-.756 11.153-6.026 12.223-14.981zM35.898 42.36L13.83 29.804 1.173 33.227l34.784 19.947-.058-10.813z" fill="#FFE267" stroke="#A5E5F4" stroke-miterlimit="10" stroke-linecap="round" stroke-linejoin="round"/><path fill-rule="evenodd" clip-rule="evenodd" d="M1.63 117.867l26.93 15.141c7.853 4.432 7.442-2.65 7.764-11.973l-.012-2.238c-.409-6.709-.457-15.658-7.562-19.348L1.447 83.937l-.275-50.709 34.784 19.947-.232-42.88 14.213 8.127.324 59.657-34.783-19.573.09 16.778 19.45 11.08c12.715 7.016 15.027 20.8 15.09 32.359l.08 14.914c.05 8.948-8.818 23.911-20.786 17.265L1.723 135.018l-.084-15.66-.009-1.491z" fill="#FFE267" stroke="#A5E5F4" stroke-miterlimit="10" stroke-linecap="round" stroke-linejoin="round"/></svg>