<svg width="427" height="726" fill="none" xmlns="http://www.w3.org/2000/svg"><mask id="a" maskUnits="userSpaceOnUse" x="-1" y="-1" width="428" height="727"><path stroke="#A5E5F4" d="M-.279 286.505l427-286.92m-427 295.198l427-286.92m-427 295.198l427-286.92m-427 295.198l427-286.92m-427 295.197l427-286.919m-427 295.198l427-286.92m-427 295.197l427-286.92m-427 295.198l427-286.92m-427 295.198l427-286.92m-427 295.198l427-286.92m-427 295.198l427-286.92m-427 295.198l427-286.92m-427 295.198l427-286.92m-427 295.198l427-286.92m-427 295.198l427-286.92m-427 295.198l427-286.92m-427 295.198l427-286.92m-427 295.198l427-286.92m-427 295.198l427-286.92m-427 295.198l427-286.92m-427 295.198l427-286.92m-427 295.197l427-286.92m-427 295.198l427-286.919m-427 295.197l427-286.92m-427 295.198l427-286.92m-427 295.198l427-286.92m-427 295.198l427-286.92m-427 295.198l427-286.92m-427 295.198l427-286.92m-427 295.198l427-286.92m-427 295.198l427-286.92m-427 295.198l427-286.92m-427 295.198l427-286.92m-427 295.198l427-286.92m-427 295.198l427-286.92m-427 295.197l427-286.919m-427 295.197l427-286.92m-427 295.198l427-286.92m-427 295.198l427-286.92m-427 295.198l427-286.92m-427 295.198l427-286.92M-.279 625.9l427-286.92m-427 295.198l427-286.92m-427 295.198l427-286.92m-427 295.198l427-286.92m-427 295.198l427-286.92m-427 295.198l427-286.92m-427 295.198l427-286.92m-427 295.197l427-286.919m-427 295.198l427-286.92m-427 295.197l427-286.919m-427 295.197l427-286.92m-427 295.198l427-286.92m-427 295.198l427-286.92"/></mask><g mask="url(#a)"><path d="M391.735 459.197H66.823V241.166l162.299-108.963 162.613 108.963v218.031z" fill="#A5E5F4"/></g><path d="M391.735 459.197H66.823V241.166l162.299-108.963 162.613 108.963v218.031z" stroke="#A5E5F4" stroke-miterlimit="10"/></svg>