<svg width="110" height="154" viewBox="0 0 110 154" fill="none" xmlns="http://www.w3.org/2000/svg">
<path fill-rule="evenodd" clip-rule="evenodd" d="M15.5705 75.284L28.2274 71.4867L28.1971 65.8938L15.4795 58.5054L15.5705 75.284Z" fill="#FFE267" stroke="#A5E5F4" stroke-miterlimit="10" stroke-linecap="round" stroke-linejoin="round"/>
<path fill-rule="evenodd" clip-rule="evenodd" d="M35.7226 10.2954L49.9356 18.4215L80.8383 10.0508C87.1688 8.52503 94.2551 8.85948 99.8702 12.9306C99.8702 12.9306 82.2631 -2.26156 66.9981 1.92275L35.7226 10.2954Z" fill="#FFE267" stroke="#A5E5F4" stroke-miterlimit="10" stroke-linecap="round" stroke-linejoin="round"/>
<path fill-rule="evenodd" clip-rule="evenodd" d="M35.9845 127.002L28.5031 122.568L36.323 120.662L36.3129 118.797C36.2988 116.187 35.9117 113.579 35.5247 110.971C35.5247 110.971 35.5247 110.971 35.5227 110.599C35.5187 109.853 35.1418 109.109 35.1377 108.363C19.5 112.55 17.2669 113.308 1.62908 117.494L28.5577 132.636C34.5456 136.705 35.646 133.343 35.9845 127.002Z" fill="#FFE267" stroke="#A5E5F4" stroke-miterlimit="10" stroke-linecap="round" stroke-linejoin="round"/>
<path fill-rule="evenodd" clip-rule="evenodd" d="M80.8372 10.0507L49.5616 18.4233L49.6101 27.3719L49.885 78.0805L62.544 74.6561L62.3135 32.1503L80.5573 27.2041C92.4705 23.7837 95.8485 27.867 95.9091 39.0527L96.1739 87.897C96.2386 99.8285 86.9495 105.845 81.3667 107.739L62.7501 112.688L62.7522 113.06L62.8391 129.093L83.6908 123.76C98.5829 119.578 108.573 105.355 108.498 91.5589C108.389 71.4246 108.28 51.2903 108.171 31.156C108.465 16.6125 96.4729 5.4915 80.8372 10.0507Z" fill="#FFE267" stroke="#A5E5F4" stroke-miterlimit="10" stroke-linecap="round" stroke-linejoin="round"/>
<path fill-rule="evenodd" clip-rule="evenodd" d="M96.1725 88.2697L95.9057 39.0525C95.8471 28.2397 92.4712 24.5293 81.6724 27.1979L81.9676 81.6351C81.6533 92.45 77.5782 97.3194 66.4086 100.363C64.5463 100.746 63.059 101.5 61.1967 101.883C62.3334 105.232 62.7265 108.959 62.7508 113.433L81.3674 108.485C89.5541 105.458 95.4875 99.4595 96.1826 90.134C96.1766 89.0155 96.1745 88.6426 96.1725 88.2697Z" fill="#FFE267" stroke="#A5E5F4" stroke-miterlimit="10" stroke-linecap="round" stroke-linejoin="round"/>
<path fill-rule="evenodd" clip-rule="evenodd" d="M36.3168 120.289L28.4989 122.568L36.3532 127C36.3431 125.136 36.333 123.271 36.3229 121.407L36.3168 120.289Z" fill="#FFE267" stroke="#A5E5F4" stroke-miterlimit="10" stroke-linecap="round" stroke-linejoin="round"/>
<path fill-rule="evenodd" clip-rule="evenodd" d="M62.8653 133.194C62.8613 132.448 62.8572 131.703 62.8532 130.957L62.8491 130.211L62.7602 113.805C62.2661 91.436 47.6781 82.9391 47.6781 82.9391L28.2289 71.8585L15.5699 75.283L35.0192 86.3636C49.6031 94.1148 50.0871 114.62 50.1013 117.23L50.1033 117.603L50.1922 134.008C50.1942 134.381 50.1963 134.754 50.1983 135.127C49.8375 137.366 48.4047 148.187 38.7327 152.341L50.6419 148.175C52.5021 147.419 61.7953 142.149 62.8653 133.194Z" fill="#FFE267" stroke="#A5E5F4" stroke-miterlimit="10" stroke-linecap="round" stroke-linejoin="round"/>
<path fill-rule="evenodd" clip-rule="evenodd" d="M35.8978 42.3608L13.8305 29.8029L1.17151 33.2273L35.9564 53.1736L35.8978 42.3608Z" fill="#FFE267" stroke="#A5E5F4" stroke-miterlimit="10" stroke-linecap="round" stroke-linejoin="round"/>
<path fill-rule="evenodd" clip-rule="evenodd" d="M1.63048 117.867L28.5591 133.008C36.4134 137.44 36.0021 130.358 36.3244 121.035L36.3123 118.797C35.903 112.088 35.8545 103.139 28.75 99.4493L1.44654 83.9368C1.35558 67.1582 1.2626 50.0068 1.17164 33.2282L35.9565 53.1745L35.7241 10.2959L49.9371 18.422L50.2605 78.0791L15.4777 58.5057L15.5686 75.2843L35.0179 86.3649C47.7334 93.3804 50.0454 107.164 50.108 118.723L50.1889 133.637C50.2374 142.585 41.3697 157.548 29.4018 150.902L1.72346 135.018L1.63856 119.358L1.63048 117.867Z" fill="#FFE267" stroke="#A5E5F4" stroke-miterlimit="10" stroke-linecap="round" stroke-linejoin="round"/>
</svg>
