<svg width="427" height="726" viewBox="0 0 427 726" fill="none" xmlns="http://www.w3.org/2000/svg">
<mask id="mask0" mask-type="alpha" maskUnits="userSpaceOnUse" x="-1" y="-1" width="428" height="727">
<line x1="-0.278864" y1="286.505" x2="426.721" y2="-0.414984" stroke="#A5E5F4"/>
<line x1="-0.278864" y1="294.783" x2="426.721" y2="7.86285" stroke="#A5E5F4"/>
<line x1="-0.278864" y1="303.061" x2="426.721" y2="16.1409" stroke="#A5E5F4"/>
<line x1="-0.278864" y1="311.339" x2="426.721" y2="24.4188" stroke="#A5E5F4"/>
<line x1="-0.278864" y1="319.616" x2="426.721" y2="32.6966" stroke="#A5E5F4"/>
<line x1="-0.278864" y1="327.895" x2="426.721" y2="40.9747" stroke="#A5E5F4"/>
<line x1="-0.278864" y1="336.172" x2="426.721" y2="49.2525" stroke="#A5E5F4"/>
<line x1="-0.278864" y1="344.45" x2="426.721" y2="57.5303" stroke="#A5E5F4"/>
<line x1="-0.278864" y1="352.728" x2="426.721" y2="65.8084" stroke="#A5E5F4"/>
<line x1="-0.278864" y1="361.006" x2="426.721" y2="74.0862" stroke="#A5E5F4"/>
<line x1="-0.278864" y1="369.284" x2="426.721" y2="82.3643" stroke="#A5E5F4"/>
<line x1="-0.278864" y1="377.562" x2="426.721" y2="90.6421" stroke="#A5E5F4"/>
<line x1="-0.278864" y1="385.84" x2="426.721" y2="98.92" stroke="#A5E5F4"/>
<line x1="-0.278864" y1="394.118" x2="426.721" y2="107.198" stroke="#A5E5F4"/>
<line x1="-0.278864" y1="402.396" x2="426.721" y2="115.476" stroke="#A5E5F4"/>
<line x1="-0.278864" y1="410.674" x2="426.721" y2="123.754" stroke="#A5E5F4"/>
<line x1="-0.278864" y1="418.952" x2="426.721" y2="132.032" stroke="#A5E5F4"/>
<line x1="-0.278864" y1="427.23" x2="426.721" y2="140.31" stroke="#A5E5F4"/>
<line x1="-0.278864" y1="435.508" x2="426.721" y2="148.588" stroke="#A5E5F4"/>
<line x1="-0.278864" y1="443.786" x2="426.721" y2="156.866" stroke="#A5E5F4"/>
<line x1="-0.278864" y1="452.064" x2="426.721" y2="165.144" stroke="#A5E5F4"/>
<line x1="-0.278864" y1="460.341" x2="426.721" y2="173.421" stroke="#A5E5F4"/>
<line x1="-0.278864" y1="468.619" x2="426.721" y2="181.7" stroke="#A5E5F4"/>
<line x1="-0.278864" y1="476.897" x2="426.721" y2="189.977" stroke="#A5E5F4"/>
<line x1="-0.278864" y1="485.175" x2="426.721" y2="198.255" stroke="#A5E5F4"/>
<line x1="-0.278864" y1="493.453" x2="426.721" y2="206.533" stroke="#A5E5F4"/>
<line x1="-0.278864" y1="501.731" x2="426.721" y2="214.811" stroke="#A5E5F4"/>
<line x1="-0.278864" y1="510.009" x2="426.721" y2="223.089" stroke="#A5E5F4"/>
<line x1="-0.278864" y1="518.287" x2="426.721" y2="231.367" stroke="#A5E5F4"/>
<line x1="-0.278864" y1="526.565" x2="426.721" y2="239.645" stroke="#A5E5F4"/>
<line x1="-0.278864" y1="534.843" x2="426.721" y2="247.923" stroke="#A5E5F4"/>
<line x1="-0.278864" y1="543.121" x2="426.721" y2="256.201" stroke="#A5E5F4"/>
<line x1="-0.278864" y1="551.399" x2="426.721" y2="264.479" stroke="#A5E5F4"/>
<line x1="-0.278864" y1="559.677" x2="426.721" y2="272.757" stroke="#A5E5F4"/>
<line x1="-0.278864" y1="567.955" x2="426.721" y2="281.035" stroke="#A5E5F4"/>
<line x1="-0.278864" y1="576.232" x2="426.721" y2="289.313" stroke="#A5E5F4"/>
<line x1="-0.278864" y1="584.51" x2="426.721" y2="297.59" stroke="#A5E5F4"/>
<line x1="-0.278864" y1="592.788" x2="426.721" y2="305.868" stroke="#A5E5F4"/>
<line x1="-0.278864" y1="601.066" x2="426.721" y2="314.146" stroke="#A5E5F4"/>
<line x1="-0.278864" y1="609.344" x2="426.721" y2="322.424" stroke="#A5E5F4"/>
<line x1="-0.278864" y1="617.622" x2="426.721" y2="330.702" stroke="#A5E5F4"/>
<line x1="-0.278864" y1="625.9" x2="426.721" y2="338.98" stroke="#A5E5F4"/>
<line x1="-0.278864" y1="634.178" x2="426.721" y2="347.258" stroke="#A5E5F4"/>
<line x1="-0.278864" y1="642.456" x2="426.721" y2="355.536" stroke="#A5E5F4"/>
<line x1="-0.278864" y1="650.734" x2="426.721" y2="363.814" stroke="#A5E5F4"/>
<line x1="-0.278864" y1="659.012" x2="426.721" y2="372.092" stroke="#A5E5F4"/>
<line x1="-0.278864" y1="667.29" x2="426.721" y2="380.37" stroke="#A5E5F4"/>
<line x1="-0.278864" y1="675.568" x2="426.721" y2="388.648" stroke="#A5E5F4"/>
<line x1="-0.278864" y1="683.845" x2="426.721" y2="396.926" stroke="#A5E5F4"/>
<line x1="-0.278864" y1="692.124" x2="426.721" y2="405.204" stroke="#A5E5F4"/>
<line x1="-0.278864" y1="700.401" x2="426.721" y2="413.482" stroke="#A5E5F4"/>
<line x1="-0.278864" y1="708.679" x2="426.721" y2="421.759" stroke="#A5E5F4"/>
<line x1="-0.278864" y1="716.957" x2="426.721" y2="430.037" stroke="#A5E5F4"/>
<line x1="-0.278864" y1="725.235" x2="426.721" y2="438.315" stroke="#A5E5F4"/>
</mask>
<g mask="url(#mask0)">
<path d="M391.735 459.197H66.823V241.166L229.122 132.203L391.735 241.166V459.197Z" fill="#A5E5F4"/>
</g>
<path d="M391.735 459.197H66.823V241.166L229.122 132.203L391.735 241.166V459.197Z" stroke="#A5E5F4" stroke-miterlimit="10"/>
</svg>
